# xmcd
#
# Track frame offsets:
#	150
#	18270
#	35997
#	53328
#	69575
#	88894
#	105222
#	120993
#	140043
#	156370
#	172122
#	188113
#	208964
#	223562
#	238118
#	260609
#
# Disc length: 3771 seconds
#
# Revision: 1
# Processed by: cddbd v1.5.2PL0 Copyright (c) Steve Scherf et al.
# Submitted via: audiograbber 1.83.01
#
DISCID=ea0eb910
DTITLE=CLÁUDIO RIOS - UMA LUZ NO FIM DO TÚNEL
DYEAR=1900
DGENRE=FORRÓ
TTITLE0=UMA LUZ NO FIM DO TÚNEL
TTITLE1=FOI VOCÊ
TTITLE2=NOSSA SENHORA APARECIDA BRASILEIRA
TTITLE3=CHEIRO DE NÓS
TTITLE4=CABRA DE GADO
TTITLE5=SUCESSO DE AMOR
TTITLE6=O PATRÃO MANDA EM MIM
TTITLE7=O MEL DE MINHA FLOR
TTITLE8=DIZ LOGO
TTITLE9=ELA NÃO TÁ NEM AÍ
TTITLE10=ANA MARIA
TTITLE11=CANÇÃO DA SAUDADE
TTITLE12=FALA CORAÇÃO
TTITLE13=MEUS CANARINHOS
TTITLE14=CANÇÃO DO LENGO
TTITLE15=SERTÃO DOS SERTÕES
EXTD=
EXTT0=
EXTT1=
EXTT2=
EXTT3=
EXTT4=
EXTT5=
EXTT6=
EXTT7=
EXTT8=
EXTT9=
EXTT10=
EXTT11=
EXTT12=
EXTT13=
EXTT14=
EXTT15=
PLAYORDER=
